<svg width="134" height="106" viewBox="0 0 134 106" fill="none" xmlns="http://www.w3.org/2000/svg">
<g id="Dotted Shape">
<circle id="Ellipse 1" cx="1.66667" cy="104" r="1.66667" transform="rotate(-90 1.66667 104)" fill="#3056D3"/>
<circle id="Ellipse 6" cx="16.3334" cy="104" r="1.66667" transform="rotate(-90 16.3334 104)" fill="#3056D3"/>
<circle id="Ellipse 11" cx="31" cy="104" r="1.66667" transform="rotate(-90 31 104)" fill="#3056D3"/>
<circle id="Ellipse 16" cx="45.6667" cy="104" r="1.66667" transform="rotate(-90 45.6667 104)" fill="#3056D3"/>
<circle id="Ellipse 21" cx="60.3334" cy="104" r="1.66667" transform="rotate(-90 60.3334 104)" fill="#3056D3"/>
<circle id="Ellipse 31" cx="88.6667" cy="104" r="1.66667" transform="rotate(-90 88.6667 104)" fill="#3056D3"/>
<circle id="Ellipse 41" cx="117.667" cy="104" r="1.66667" transform="rotate(-90 117.667 104)" fill="#3056D3"/>
<circle id="Ellipse 26" cx="74.6667" cy="104" r="1.66667" transform="rotate(-90 74.6667 104)" fill="#3056D3"/>
<circle id="Ellipse 32" cx="103" cy="104" r="1.66667" transform="rotate(-90 103 104)" fill="#3056D3"/>
<circle id="Ellipse 42" cx="132" cy="104" r="1.66667" transform="rotate(-90 132 104)" fill="#3056D3"/>
<circle id="Ellipse 2" cx="1.66667" cy="89.3333" r="1.66667" transform="rotate(-90 1.66667 89.3333)" fill="#3056D3"/>
<circle id="Ellipse 7" cx="16.3334" cy="89.3333" r="1.66667" transform="rotate(-90 16.3334 89.3333)" fill="#3056D3"/>
<circle id="Ellipse 12" cx="31" cy="89.3333" r="1.66667" transform="rotate(-90 31 89.3333)" fill="#3056D3"/>
<circle id="Ellipse 17" cx="45.6667" cy="89.3333" r="1.66667" transform="rotate(-90 45.6667 89.3333)" fill="#3056D3"/>
<circle id="Ellipse 22" cx="60.3334" cy="89.3338" r="1.66667" transform="rotate(-90 60.3334 89.3338)" fill="#3056D3"/>
<circle id="Ellipse 33" cx="88.6667" cy="89.3338" r="1.66667" transform="rotate(-90 88.6667 89.3338)" fill="#3056D3"/>
<circle id="Ellipse 43" cx="117.667" cy="89.3338" r="1.66667" transform="rotate(-90 117.667 89.3338)" fill="#3056D3"/>
<circle id="Ellipse 27" cx="74.6667" cy="89.3338" r="1.66667" transform="rotate(-90 74.6667 89.3338)" fill="#3056D3"/>
<circle id="Ellipse 34" cx="103" cy="89.3338" r="1.66667" transform="rotate(-90 103 89.3338)" fill="#3056D3"/>
<circle id="Ellipse 44" cx="132" cy="89.3338" r="1.66667" transform="rotate(-90 132 89.3338)" fill="#3056D3"/>
<circle id="Ellipse 3" cx="1.66667" cy="74.6673" r="1.66667" transform="rotate(-90 1.66667 74.6673)" fill="#3056D3"/>
<circle id="Ellipse 51" cx="1.66667" cy="31.0003" r="1.66667" transform="rotate(-90 1.66667 31.0003)" fill="#3056D3"/>
<circle id="Ellipse 8" cx="16.3334" cy="74.6668" r="1.66667" transform="rotate(-90 16.3334 74.6668)" fill="#3056D3"/>
<circle id="Ellipse 52" cx="16.3334" cy="31.0003" r="1.66667" transform="rotate(-90 16.3334 31.0003)" fill="#3056D3"/>
<circle id="Ellipse 13" cx="31" cy="74.6668" r="1.66667" transform="rotate(-90 31 74.6668)" fill="#3056D3"/>
<circle id="Ellipse 53" cx="31" cy="31.0003" r="1.66667" transform="rotate(-90 31 31.0003)" fill="#3056D3"/>
<circle id="Ellipse 18" cx="45.6667" cy="74.6668" r="1.66667" transform="rotate(-90 45.6667 74.6668)" fill="#3056D3"/>
<circle id="Ellipse 54" cx="45.6667" cy="31.0003" r="1.66667" transform="rotate(-90 45.6667 31.0003)" fill="#3056D3"/>
<circle id="Ellipse 23" cx="60.3334" cy="74.6668" r="1.66667" transform="rotate(-90 60.3334 74.6668)" fill="#3056D3"/>
<circle id="Ellipse 55" cx="60.3334" cy="30.9998" r="1.66667" transform="rotate(-90 60.3334 30.9998)" fill="#3056D3"/>
<circle id="Ellipse 35" cx="88.6667" cy="74.6668" r="1.66667" transform="rotate(-90 88.6667 74.6668)" fill="#3056D3"/>
<circle id="Ellipse 56" cx="88.6667" cy="30.9998" r="1.66667" transform="rotate(-90 88.6667 30.9998)" fill="#3056D3"/>
<circle id="Ellipse 45" cx="117.667" cy="74.6668" r="1.66667" transform="rotate(-90 117.667 74.6668)" fill="#3056D3"/>
<circle id="Ellipse 57" cx="117.667" cy="30.9998" r="1.66667" transform="rotate(-90 117.667 30.9998)" fill="#3056D3"/>
<circle id="Ellipse 28" cx="74.6667" cy="74.6668" r="1.66667" transform="rotate(-90 74.6667 74.6668)" fill="#3056D3"/>
<circle id="Ellipse 58" cx="74.6667" cy="30.9998" r="1.66667" transform="rotate(-90 74.6667 30.9998)" fill="#3056D3"/>
<circle id="Ellipse 36" cx="103" cy="74.6668" r="1.66667" transform="rotate(-90 103 74.6668)" fill="#3056D3"/>
<circle id="Ellipse 59" cx="103" cy="30.9998" r="1.66667" transform="rotate(-90 103 30.9998)" fill="#3056D3"/>
<circle id="Ellipse 46" cx="132" cy="74.6668" r="1.66667" transform="rotate(-90 132 74.6668)" fill="#3056D3"/>
<circle id="Ellipse 60" cx="132" cy="30.9998" r="1.66667" transform="rotate(-90 132 30.9998)" fill="#3056D3"/>
<circle id="Ellipse 4" cx="1.66667" cy="60.0003" r="1.66667" transform="rotate(-90 1.66667 60.0003)" fill="#3056D3"/>
<circle id="Ellipse 61" cx="1.66667" cy="16.3333" r="1.66667" transform="rotate(-90 1.66667 16.3333)" fill="#3056D3"/>
<circle id="Ellipse 9" cx="16.3334" cy="60.0003" r="1.66667" transform="rotate(-90 16.3334 60.0003)" fill="#3056D3"/>
<circle id="Ellipse 62" cx="16.3334" cy="16.3333" r="1.66667" transform="rotate(-90 16.3334 16.3333)" fill="#3056D3"/>
<circle id="Ellipse 14" cx="31" cy="60.0003" r="1.66667" transform="rotate(-90 31 60.0003)" fill="#3056D3"/>
<circle id="Ellipse 63" cx="31" cy="16.3333" r="1.66667" transform="rotate(-90 31 16.3333)" fill="#3056D3"/>
<circle id="Ellipse 19" cx="45.6667" cy="60.0003" r="1.66667" transform="rotate(-90 45.6667 60.0003)" fill="#3056D3"/>
<circle id="Ellipse 64" cx="45.6667" cy="16.3333" r="1.66667" transform="rotate(-90 45.6667 16.3333)" fill="#3056D3"/>
<circle id="Ellipse 24" cx="60.3334" cy="60.0003" r="1.66667" transform="rotate(-90 60.3334 60.0003)" fill="#3056D3"/>
<circle id="Ellipse 65" cx="60.3334" cy="16.3333" r="1.66667" transform="rotate(-90 60.3334 16.3333)" fill="#3056D3"/>
<circle id="Ellipse 37" cx="88.6667" cy="60.0003" r="1.66667" transform="rotate(-90 88.6667 60.0003)" fill="#3056D3"/>
<circle id="Ellipse 66" cx="88.6667" cy="16.3333" r="1.66667" transform="rotate(-90 88.6667 16.3333)" fill="#3056D3"/>
<circle id="Ellipse 47" cx="117.667" cy="60.0003" r="1.66667" transform="rotate(-90 117.667 60.0003)" fill="#3056D3"/>
<circle id="Ellipse 67" cx="117.667" cy="16.3333" r="1.66667" transform="rotate(-90 117.667 16.3333)" fill="#3056D3"/>
<circle id="Ellipse 29" cx="74.6667" cy="60.0003" r="1.66667" transform="rotate(-90 74.6667 60.0003)" fill="#3056D3"/>
<circle id="Ellipse 68" cx="74.6667" cy="16.3333" r="1.66667" transform="rotate(-90 74.6667 16.3333)" fill="#3056D3"/>
<circle id="Ellipse 38" cx="103" cy="60.0003" r="1.66667" transform="rotate(-90 103 60.0003)" fill="#3056D3"/>
<circle id="Ellipse 69" cx="103" cy="16.3333" r="1.66667" transform="rotate(-90 103 16.3333)" fill="#3056D3"/>
<circle id="Ellipse 48" cx="132" cy="60.0003" r="1.66667" transform="rotate(-90 132 60.0003)" fill="#3056D3"/>
<circle id="Ellipse 70" cx="132" cy="16.3333" r="1.66667" transform="rotate(-90 132 16.3333)" fill="#3056D3"/>
<circle id="Ellipse 5" cx="1.66667" cy="45.3333" r="1.66667" transform="rotate(-90 1.66667 45.3333)" fill="#3056D3"/>
<circle id="Ellipse 71" cx="1.66667" cy="1.66683" r="1.66667" transform="rotate(-90 1.66667 1.66683)" fill="#3056D3"/>
<circle id="Ellipse 10" cx="16.3334" cy="45.3333" r="1.66667" transform="rotate(-90 16.3334 45.3333)" fill="#3056D3"/>
<circle id="Ellipse 72" cx="16.3334" cy="1.66683" r="1.66667" transform="rotate(-90 16.3334 1.66683)" fill="#3056D3"/>
<circle id="Ellipse 15" cx="31" cy="45.3333" r="1.66667" transform="rotate(-90 31 45.3333)" fill="#3056D3"/>
<circle id="Ellipse 73" cx="31" cy="1.66683" r="1.66667" transform="rotate(-90 31 1.66683)" fill="#3056D3"/>
<circle id="Ellipse 20" cx="45.6667" cy="45.3333" r="1.66667" transform="rotate(-90 45.6667 45.3333)" fill="#3056D3"/>
<circle id="Ellipse 74" cx="45.6667" cy="1.66683" r="1.66667" transform="rotate(-90 45.6667 1.66683)" fill="#3056D3"/>
<circle id="Ellipse 25" cx="60.3334" cy="45.3338" r="1.66667" transform="rotate(-90 60.3334 45.3338)" fill="#3056D3"/>
<circle id="Ellipse 75" cx="60.3334" cy="1.66683" r="1.66667" transform="rotate(-90 60.3334 1.66683)" fill="#3056D3"/>
<circle id="Ellipse 39" cx="88.6667" cy="45.3338" r="1.66667" transform="rotate(-90 88.6667 45.3338)" fill="#3056D3"/>
<circle id="Ellipse 76" cx="88.6667" cy="1.66683" r="1.66667" transform="rotate(-90 88.6667 1.66683)" fill="#3056D3"/>
<circle id="Ellipse 49" cx="117.667" cy="45.3338" r="1.66667" transform="rotate(-90 117.667 45.3338)" fill="#3056D3"/>
<circle id="Ellipse 77" cx="117.667" cy="1.66683" r="1.66667" transform="rotate(-90 117.667 1.66683)" fill="#3056D3"/>
<circle id="Ellipse 30" cx="74.6667" cy="45.3338" r="1.66667" transform="rotate(-90 74.6667 45.3338)" fill="#3056D3"/>
<circle id="Ellipse 78" cx="74.6667" cy="1.66683" r="1.66667" transform="rotate(-90 74.6667 1.66683)" fill="#3056D3"/>
<circle id="Ellipse 40" cx="103" cy="45.3338" r="1.66667" transform="rotate(-90 103 45.3338)" fill="#3056D3"/>
<circle id="Ellipse 79" cx="103" cy="1.66683" r="1.66667" transform="rotate(-90 103 1.66683)" fill="#3056D3"/>
<circle id="Ellipse 50" cx="132" cy="45.3338" r="1.66667" transform="rotate(-90 132 45.3338)" fill="#3056D3"/>
<circle id="Ellipse 80" cx="132" cy="1.66683" r="1.66667" transform="rotate(-90 132 1.66683)" fill="#3056D3"/>
</g>
</svg>
